<mxfile host="www.draw.io" modified="2020-02-25T08:13:39.314Z" agent="Mozilla/5.0 (Windows NT 10.0; Win64; x64) AppleWebKit/537.36 (KHTML, like Gecko) Chrome/80.0.3987.122 Safari/537.36" etag="tN8koRNsfRwkzn9jzS8j" version="12.7.4" type="github">
  <diagram name="Page-1" id="e7e014a7-5840-1c2e-5031-d8a46d1fe8dd">
    <mxGraphModel dx="1056" dy="567" grid="1" gridSize="10" guides="1" tooltips="1" connect="1" arrows="1" fold="1" page="1" pageScale="1" pageWidth="1169" pageHeight="826" background="#ffffff" math="0" shadow="0">
      <root>
        <mxCell id="0" />
        <mxCell id="1" parent="0" />
        <mxCell id="2" value="User" style="swimlane;whiteSpace=wrap" parent="1" vertex="1">
          <mxGeometry x="210" y="128" width="234.5" height="1002" as="geometry" />
        </mxCell>
        <mxCell id="9" value="" style="endArrow=open;strokeColor=#FF0000;endFill=1;rounded=0" parent="2" edge="1">
          <mxGeometry relative="1" as="geometry">
            <mxPoint x="115" y="160" as="sourcePoint" />
            <mxPoint x="115" y="220" as="targetPoint" />
          </mxGeometry>
        </mxCell>
        <mxCell id="uOTItk1kbjwrEWO6Ws9q-44" value="" style="rhombus;whiteSpace=wrap;html=1;fillColor=#ffffc0;strokeColor=#ff0000;" vertex="1" parent="2">
          <mxGeometry x="75" y="220" width="80" height="40" as="geometry" />
        </mxCell>
        <mxCell id="uOTItk1kbjwrEWO6Ws9q-72" value="Menginput data" style="rounded=1;whiteSpace=wrap;html=1;arcSize=40;fontColor=#000000;fillColor=#ffffc0;strokeColor=#ff0000;" vertex="1" parent="2">
          <mxGeometry x="55" y="122" width="120" height="40" as="geometry" />
        </mxCell>
        <mxCell id="uOTItk1kbjwrEWO6Ws9q-76" value="" style="ellipse;html=1;shape=startState;fillColor=#000000;strokeColor=#ff0000;" vertex="1" parent="2">
          <mxGeometry x="100" y="32" width="30" height="30" as="geometry" />
        </mxCell>
        <mxCell id="uOTItk1kbjwrEWO6Ws9q-77" value="" style="edgeStyle=orthogonalEdgeStyle;html=1;verticalAlign=bottom;endArrow=open;endSize=8;strokeColor=#ff0000;" edge="1" source="uOTItk1kbjwrEWO6Ws9q-76" parent="2">
          <mxGeometry relative="1" as="geometry">
            <mxPoint x="115" y="122" as="targetPoint" />
          </mxGeometry>
        </mxCell>
        <mxCell id="uOTItk1kbjwrEWO6Ws9q-88" style="edgeStyle=orthogonalEdgeStyle;rounded=1;orthogonalLoop=1;jettySize=auto;html=1;exitX=0;exitY=0.5;exitDx=0;exitDy=0;entryX=0;entryY=0.5;entryDx=0;entryDy=0;strokeColor=#FF0000;" edge="1" parent="2" source="uOTItk1kbjwrEWO6Ws9q-87" target="uOTItk1kbjwrEWO6Ws9q-72">
          <mxGeometry relative="1" as="geometry" />
        </mxCell>
        <mxCell id="uOTItk1kbjwrEWO6Ws9q-87" value="Feedback" style="rounded=1;whiteSpace=wrap;html=1;arcSize=40;fontColor=#000000;fillColor=#ffffc0;strokeColor=#ff0000;" vertex="1" parent="2">
          <mxGeometry x="55" y="622" width="120" height="40" as="geometry" />
        </mxCell>
        <mxCell id="3" value="Server" style="swimlane;whiteSpace=wrap" parent="1" vertex="1">
          <mxGeometry x="444.5" y="128" width="275.5" height="1002" as="geometry" />
        </mxCell>
        <mxCell id="uOTItk1kbjwrEWO6Ws9q-47" value="Auto-Correct" style="rounded=1;whiteSpace=wrap;html=1;arcSize=40;fontColor=#000000;fillColor=#ffffc0;strokeColor=#ff0000;" vertex="1" parent="3">
          <mxGeometry x="80.5" y="220" width="120" height="40" as="geometry" />
        </mxCell>
        <mxCell id="uOTItk1kbjwrEWO6Ws9q-48" value="" style="edgeStyle=orthogonalEdgeStyle;html=1;verticalAlign=bottom;endArrow=open;endSize=8;strokeColor=#ff0000;" edge="1" source="uOTItk1kbjwrEWO6Ws9q-47" parent="3">
          <mxGeometry relative="1" as="geometry">
            <mxPoint x="140.5" y="322" as="targetPoint" />
          </mxGeometry>
        </mxCell>
        <mxCell id="uOTItk1kbjwrEWO6Ws9q-49" value="Koreksi input User" style="rounded=1;whiteSpace=wrap;html=1;arcSize=40;fontColor=#000000;fillColor=#ffffc0;strokeColor=#ff0000;" vertex="1" parent="3">
          <mxGeometry x="80.5" y="322" width="120" height="40" as="geometry" />
        </mxCell>
        <mxCell id="uOTItk1kbjwrEWO6Ws9q-50" value="" style="edgeStyle=orthogonalEdgeStyle;html=1;verticalAlign=bottom;endArrow=open;endSize=8;strokeColor=#ff0000;" edge="1" source="uOTItk1kbjwrEWO6Ws9q-49" parent="3">
          <mxGeometry relative="1" as="geometry">
            <mxPoint x="140.5" y="422" as="targetPoint" />
          </mxGeometry>
        </mxCell>
        <mxCell id="uOTItk1kbjwrEWO6Ws9q-51" value="Simpan data sementara" style="rounded=1;whiteSpace=wrap;html=1;arcSize=40;fontColor=#000000;fillColor=#ffffc0;strokeColor=#ff0000;" vertex="1" parent="3">
          <mxGeometry x="80.5" y="422" width="120" height="40" as="geometry" />
        </mxCell>
        <mxCell id="uOTItk1kbjwrEWO6Ws9q-52" value="" style="edgeStyle=orthogonalEdgeStyle;html=1;verticalAlign=bottom;endArrow=open;endSize=8;strokeColor=#ff0000;" edge="1" source="uOTItk1kbjwrEWO6Ws9q-51" parent="3">
          <mxGeometry relative="1" as="geometry">
            <mxPoint x="140.5" y="522" as="targetPoint" />
          </mxGeometry>
        </mxCell>
        <mxCell id="uOTItk1kbjwrEWO6Ws9q-66" value="Pengecekan skor" style="rounded=1;whiteSpace=wrap;html=1;arcSize=40;fontColor=#000000;fillColor=#ffffc0;strokeColor=#ff0000;" vertex="1" parent="3">
          <mxGeometry x="80.5" y="522" width="120" height="40" as="geometry" />
        </mxCell>
        <mxCell id="uOTItk1kbjwrEWO6Ws9q-67" value="" style="edgeStyle=orthogonalEdgeStyle;html=1;verticalAlign=bottom;endArrow=open;endSize=8;strokeColor=#ff0000;" edge="1" source="uOTItk1kbjwrEWO6Ws9q-66" parent="3">
          <mxGeometry relative="1" as="geometry">
            <mxPoint x="140.5" y="622" as="targetPoint" />
          </mxGeometry>
        </mxCell>
        <mxCell id="uOTItk1kbjwrEWO6Ws9q-83" value="" style="rhombus;whiteSpace=wrap;html=1;fillColor=#ffffc0;strokeColor=#ff0000;" vertex="1" parent="3">
          <mxGeometry x="100.5" y="622" width="80" height="40" as="geometry" />
        </mxCell>
        <mxCell id="uOTItk1kbjwrEWO6Ws9q-89" value="Submit data" style="rounded=1;whiteSpace=wrap;html=1;arcSize=40;fontColor=#000000;fillColor=#ffffc0;strokeColor=#ff0000;" vertex="1" parent="3">
          <mxGeometry x="80.5" y="722" width="120" height="40" as="geometry" />
        </mxCell>
        <mxCell id="uOTItk1kbjwrEWO6Ws9q-90" value="" style="edgeStyle=orthogonalEdgeStyle;html=1;verticalAlign=bottom;endArrow=open;endSize=8;strokeColor=#ff0000;" edge="1" source="uOTItk1kbjwrEWO6Ws9q-89" parent="3">
          <mxGeometry relative="1" as="geometry">
            <mxPoint x="140.5" y="822" as="targetPoint" />
          </mxGeometry>
        </mxCell>
        <mxCell id="uOTItk1kbjwrEWO6Ws9q-91" value="data cukup lengkap" style="edgeStyle=orthogonalEdgeStyle;html=1;verticalAlign=bottom;endArrow=open;endSize=8;strokeColor=#ff0000;" edge="1" parent="3">
          <mxGeometry relative="1" as="geometry">
            <mxPoint x="139.5" y="722" as="targetPoint" />
            <mxPoint x="139.5" y="662" as="sourcePoint" />
          </mxGeometry>
        </mxCell>
        <mxCell id="uOTItk1kbjwrEWO6Ws9q-93" value="Klasifikasi" style="rounded=1;whiteSpace=wrap;html=1;arcSize=40;fontColor=#000000;fillColor=#ffffc0;strokeColor=#ff0000;" vertex="1" parent="3">
          <mxGeometry x="80.5" y="822" width="120" height="40" as="geometry" />
        </mxCell>
        <mxCell id="uOTItk1kbjwrEWO6Ws9q-94" value="" style="edgeStyle=orthogonalEdgeStyle;html=1;verticalAlign=bottom;endArrow=open;endSize=8;strokeColor=#ff0000;" edge="1" source="uOTItk1kbjwrEWO6Ws9q-93" parent="3">
          <mxGeometry relative="1" as="geometry">
            <mxPoint x="140.5" y="922" as="targetPoint" />
          </mxGeometry>
        </mxCell>
        <mxCell id="uOTItk1kbjwrEWO6Ws9q-95" value="" style="ellipse;html=1;shape=endState;fillColor=#000000;strokeColor=#ff0000;" vertex="1" parent="3">
          <mxGeometry x="125.5" y="922" width="30" height="30" as="geometry" />
        </mxCell>
        <mxCell id="uOTItk1kbjwrEWO6Ws9q-45" value="Terdapat kesalahan input" style="edgeStyle=orthogonalEdgeStyle;html=1;align=left;verticalAlign=bottom;endArrow=open;endSize=8;strokeColor=#ff0000;" edge="1" source="uOTItk1kbjwrEWO6Ws9q-44" parent="1" target="uOTItk1kbjwrEWO6Ws9q-47">
          <mxGeometry x="-1" relative="1" as="geometry">
            <mxPoint x="370" y="368" as="targetPoint" />
          </mxGeometry>
        </mxCell>
        <mxCell id="uOTItk1kbjwrEWO6Ws9q-56" style="edgeStyle=orthogonalEdgeStyle;rounded=1;orthogonalLoop=1;jettySize=auto;html=1;exitX=0.5;exitY=1;exitDx=0;exitDy=0;entryX=0;entryY=0.5;entryDx=0;entryDy=0;strokeColor=#FF0000;" edge="1" parent="1" source="uOTItk1kbjwrEWO6Ws9q-44" target="uOTItk1kbjwrEWO6Ws9q-51">
          <mxGeometry relative="1" as="geometry" />
        </mxCell>
        <mxCell id="uOTItk1kbjwrEWO6Ws9q-86" value="data kurang lengkap" style="edgeStyle=orthogonalEdgeStyle;rounded=1;orthogonalLoop=1;jettySize=auto;html=1;exitX=0;exitY=0.5;exitDx=0;exitDy=0;strokeColor=#FF0000;" edge="1" parent="1" source="uOTItk1kbjwrEWO6Ws9q-83" target="uOTItk1kbjwrEWO6Ws9q-87">
          <mxGeometry relative="1" as="geometry">
            <mxPoint x="340" y="770" as="targetPoint" />
          </mxGeometry>
        </mxCell>
      </root>
    </mxGraphModel>
  </diagram>
</mxfile>
